<svg xmlns="http://www.w3.org/2000/svg" width="100%" viewBox="0 0 860 490" font-family="'Courier New', Courier, monospace">
  <defs>
    <filter id="outerGlow" x="-20%" y="-20%" width="140%" height="140%">
      <feGaussianBlur in="SourceGraphic" stdDeviation="6" result="blur"/>
      <feMerge><feMergeNode in="blur"/><feMergeNode in="SourceGraphic"/></feMerge>
    </filter>
    <filter id="panelGlow" x="-5%" y="-5%" width="110%" height="110%">
      <feGaussianBlur in="SourceGraphic" stdDeviation="3" result="blur"/>
      <feMerge><feMergeNode in="blur"/><feMergeNode in="SourceGraphic"/></feMerge>
    </filter>
    <filter id="textGlow">
      <feGaussianBlur in="SourceGraphic" stdDeviation="2" result="blur"/>
      <feMerge><feMergeNode in="blur"/><feMergeNode in="SourceGraphic"/></feMerge>
    </filter>
    <filter id="goldGlow">
      <feGaussianBlur in="SourceGraphic" stdDeviation="2.5" result="blur"/>
      <feMerge><feMergeNode in="blur"/><feMergeNode in="SourceGraphic"/></feMerge>
    </filter>
    <linearGradient id="panelBg" x1="0%" y1="0%" x2="100%" y2="100%">
      <stop offset="0%"   stop-color="#001a3a" stop-opacity="0.97"/>
      <stop offset="100%" stop-color="#002850" stop-opacity="0.97"/>
    </linearGradient>
    <linearGradient id="borderGrad" x1="0%" y1="0%" x2="100%" y2="100%">
      <stop offset="0%"   stop-color="#00ddff"/>
      <stop offset="50%"  stop-color="#0099ee"/>
      <stop offset="100%" stop-color="#00ddff"/>
    </linearGradient>
    <linearGradient id="scanlineGrad" x1="0%" y1="0%" x2="0%" y2="100%">
      <stop offset="0%"   stop-color="#00aaff" stop-opacity="0"/>
      <stop offset="50%"  stop-color="#00ccff" stop-opacity="0.04"/>
      <stop offset="100%" stop-color="#00aaff" stop-opacity="0"/>
    </linearGradient>
    <linearGradient id="badgeLang" x1="0%" y1="0%" x2="100%" y2="100%">
      <stop offset="0%"   stop-color="#0f0820"/>
      <stop offset="100%" stop-color="#1a1040"/>
    </linearGradient>
    <linearGradient id="badgeFrame" x1="0%" y1="0%" x2="100%" y2="100%">
      <stop offset="0%"   stop-color="#07071a"/>
      <stop offset="100%" stop-color="#0d0d2b"/>
    </linearGradient>
    <linearGradient id="badgeCloud" x1="0%" y1="0%" x2="100%" y2="100%">
      <stop offset="0%"   stop-color="#050510"/>
      <stop offset="100%" stop-color="#0a0a1a"/>
    </linearGradient>
  </defs>

  <!-- Outer glow shadow -->
  <rect x="8" y="8" width="844" height="474" rx="4" ry="4"
        fill="none" stroke="#00ccff" stroke-width="2" opacity="0.2"
        filter="url(#outerGlow)"/>

  <!-- Main panel body -->
  <rect x="10" y="10" width="840" height="470" rx="3" ry="3" fill="url(#panelBg)"/>

  <!-- Outer border -->
  <rect x="10" y="10" width="840" height="470" rx="3" ry="3"
        fill="none" stroke="url(#borderGrad)" stroke-width="2" filter="url(#panelGlow)"/>

  <!-- Inner border -->
  <rect x="14" y="14" width="832" height="462" rx="2" ry="2"
        fill="none" stroke="#00aadd" stroke-width="0.5" opacity="0.5"/>

  <!-- Scanline overlay -->
  <rect x="10" y="10" width="840" height="470" fill="url(#scanlineGrad)" opacity="0.6"/>

  <!-- Corner accent marks -->
  <line x1="10"  y1="30"  x2="10"  y2="10"  stroke="#00ffff" stroke-width="3" opacity="0.9"/>
  <line x1="10"  y1="10"  x2="30"  y2="10"  stroke="#00ffff" stroke-width="3" opacity="0.9"/>
  <line x1="820" y1="10"  x2="850" y2="10"  stroke="#00ffff" stroke-width="3" opacity="0.9"/>
  <line x1="850" y1="10"  x2="850" y2="30"  stroke="#00ffff" stroke-width="3" opacity="0.9"/>
  <line x1="10"  y1="460" x2="10"  y2="480" stroke="#00ffff" stroke-width="3" opacity="0.9"/>
  <line x1="10"  y1="480" x2="30"  y2="480" stroke="#00ffff" stroke-width="3" opacity="0.9"/>
  <line x1="820" y1="480" x2="850" y2="480" stroke="#00ffff" stroke-width="3" opacity="0.9"/>
  <line x1="850" y1="460" x2="850" y2="480" stroke="#00ffff" stroke-width="3" opacity="0.9"/>

  <!-- Title bar -->
  <rect x="10" y="10" width="840" height="38" rx="2" ry="2" fill="#0044bb" opacity="0.85"/>
  <rect x="10" y="10" width="840" height="38" rx="2" ry="2" fill="none" stroke="#00aadd" stroke-width="0.5"/>
  <text x="430" y="35" fill="#ffffff" font-size="14" font-weight="bold"
        letter-spacing="3" text-anchor="middle" filter="url(#textGlow)">
    ✦  CONSTELLATION REGISTRY — SKILLS &amp; WEAPONS
  </text>
  <text x="768" y="34" fill="#aaddff" font-size="13" opacity="0.9">[-]</text>
  <text x="796" y="34" fill="#aaddff" font-size="13" opacity="0.9">[□]</text>
  <text x="824" y="34" fill="#ff6688" font-size="13" font-weight="bold">[X]</text>

  <!-- Divider under title -->
  <line x1="10" y1="48" x2="850" y2="48" stroke="#00aadd" stroke-width="1" opacity="0.7"/>

  <!-- Left accent bar -->
  <rect x="10" y="48" width="4" height="432" fill="#0066cc" opacity="0.6"/>

  <!-- Quote -->
  <text x="430" y="67" fill="#4488aa" font-size="11.5" font-style="italic"
        text-anchor="middle" letter-spacing="0.5">
    "Every constellation grants power to those worthy of their sponsorship."
  </text>

  <!-- ══════════════════════════════════════════════════════════════════
       SECTION 1 — LANGUAGES
       Grid: 4 per row · badge w=188 · gap=8 · x = 36, 232, 428, 624
       Row 1 y=104 | Row 2 y=138 | Row 3 y=172
       Items (10): Python·SQL·C++·C / ASM·Java·HTML5·CSS3 / JS·PyTorch
       ══════════════════════════════════════════════════════════════════ -->

  <rect x="36" y="76" width="788" height="22" rx="1" fill="#001830" opacity="0.8"/>
  <line x1="36" y1="76"  x2="824" y2="76"  stroke="#f0c040" stroke-width="1" opacity="0.6"/>
  <line x1="36" y1="98"  x2="824" y2="98"  stroke="#f0c040" stroke-width="1" opacity="0.3"/>
  <text x="430" y="91" fill="#f0c040" font-size="12" font-weight="bold"
        letter-spacing="3" text-anchor="middle" filter="url(#goldGlow)">[ LANGUAGES ]</text>

  <!-- Row 1: Python | SQL | C++ | C -->
  <rect x="36"  y="104" width="188" height="28" rx="2" fill="url(#badgeLang)" stroke="#f0c040" stroke-width="0.8" stroke-opacity="0.4"/>
  <circle cx="52"  cy="118" r="4" fill="#4B8BBE"/>
  <text x="63"  y="122" fill="#f0c040" font-size="11.5" font-weight="bold" letter-spacing="1">PYTHON</text>

  <rect x="232" y="104" width="188" height="28" rx="2" fill="url(#badgeLang)" stroke="#f0c040" stroke-width="0.8" stroke-opacity="0.4"/>
  <circle cx="248" cy="118" r="4" fill="#336791"/>
  <text x="259" y="122" fill="#f0c040" font-size="11.5" font-weight="bold" letter-spacing="1">SQL</text>

  <rect x="428" y="104" width="188" height="28" rx="2" fill="url(#badgeLang)" stroke="#f0c040" stroke-width="0.8" stroke-opacity="0.4"/>
  <circle cx="444" cy="118" r="4" fill="#00599C"/>
  <text x="455" y="122" fill="#f0c040" font-size="11.5" font-weight="bold" letter-spacing="1">C++</text>

  <rect x="624" y="104" width="188" height="28" rx="2" fill="url(#badgeLang)" stroke="#f0c040" stroke-width="0.8" stroke-opacity="0.4"/>
  <circle cx="640" cy="118" r="4" fill="#A8B9CC"/>
  <text x="651" y="122" fill="#f0c040" font-size="11.5" font-weight="bold" letter-spacing="1">C</text>

  <!-- Row 2: ASM | Java | HTML5 | CSS3 -->
  <rect x="36"  y="138" width="188" height="28" rx="2" fill="url(#badgeLang)" stroke="#f0c040" stroke-width="0.8" stroke-opacity="0.4"/>
  <circle cx="52"  cy="152" r="4" fill="#6E4C13" stroke="#f0c040" stroke-width="0.5"/>
  <text x="63"  y="156" fill="#f0c040" font-size="11.5" font-weight="bold" letter-spacing="1">ASM</text>

  <rect x="232" y="138" width="188" height="28" rx="2" fill="url(#badgeLang)" stroke="#f0c040" stroke-width="0.8" stroke-opacity="0.4"/>
  <circle cx="248" cy="152" r="4" fill="#ED8B00"/>
  <text x="259" y="156" fill="#f0c040" font-size="11.5" font-weight="bold" letter-spacing="1">JAVA</text>

  <rect x="428" y="138" width="188" height="28" rx="2" fill="url(#badgeLang)" stroke="#f0c040" stroke-width="0.8" stroke-opacity="0.4"/>
  <circle cx="444" cy="152" r="4" fill="#E34F26"/>
  <text x="455" y="156" fill="#f0c040" font-size="11.5" font-weight="bold" letter-spacing="1">HTML5</text>

  <rect x="624" y="138" width="188" height="28" rx="2" fill="url(#badgeLang)" stroke="#f0c040" stroke-width="0.8" stroke-opacity="0.4"/>
  <circle cx="640" cy="152" r="4" fill="#1572B6"/>
  <text x="651" y="156" fill="#f0c040" font-size="11.5" font-weight="bold" letter-spacing="1">CSS3</text>

  <!-- Row 3: JavaScript | PyTorch (2 items — left-aligned) -->
  <rect x="36"  y="172" width="188" height="28" rx="2" fill="url(#badgeLang)" stroke="#f0c040" stroke-width="0.8" stroke-opacity="0.4"/>
  <circle cx="52"  cy="186" r="4" fill="#F7DF1E"/>
  <text x="63"  y="190" fill="#f0c040" font-size="11.5" font-weight="bold" letter-spacing="1">JAVASCRIPT</text>

  <rect x="232" y="172" width="188" height="28" rx="2" fill="url(#badgeLang)" stroke="#f0c040" stroke-width="0.8" stroke-opacity="0.4"/>
  <circle cx="248" cy="186" r="4" fill="#EE4C2C"/>
  <text x="259" y="190" fill="#f0c040" font-size="11.5" font-weight="bold" letter-spacing="1">PYTORCH</text>

  <!-- ══════════════════════════════════════════════════════════════════
       SECTION 2 — FRAMEWORKS & ARSENALS
       Grid: 5 per row · badge w=152 · gap=6 · x = 36, 194, 352, 510, 668
       ══════════════════════════════════════════════════════════════════ -->

  <rect x="36" y="210" width="788" height="22" rx="1" fill="#001020" opacity="0.8"/>
  <line x1="36" y1="210" x2="824" y2="210" stroke="#61dafb" stroke-width="1" opacity="0.5"/>
  <line x1="36" y1="232" x2="824" y2="232" stroke="#61dafb" stroke-width="1" opacity="0.3"/>
  <text x="430" y="225" fill="#61dafb" font-size="12" font-weight="bold"
        letter-spacing="3" text-anchor="middle" filter="url(#textGlow)">[ FRAMEWORKS &amp; ARSENALS ]</text>

  <rect x="36"  y="238" width="152" height="28" rx="2" fill="url(#badgeFrame)" stroke="#61dafb" stroke-width="0.8" stroke-opacity="0.5"/>
  <circle cx="50"  cy="252" r="4" fill="#61dafb"/>
  <text x="61"  y="256" fill="#61dafb" font-size="11.5" font-weight="bold" letter-spacing="1">REACT</text>

  <rect x="194" y="238" width="152" height="28" rx="2" fill="url(#badgeFrame)" stroke="#6dbf67" stroke-width="0.8" stroke-opacity="0.5"/>
  <circle cx="208" cy="252" r="4" fill="#6dbf67"/>
  <text x="219" y="256" fill="#6dbf67" font-size="11.5" font-weight="bold" letter-spacing="1">NODE.JS</text>

  <rect x="352" y="238" width="152" height="28" rx="2" fill="url(#badgeFrame)" stroke="#00d4aa" stroke-width="0.8" stroke-opacity="0.5"/>
  <circle cx="366" cy="252" r="4" fill="#00d4aa"/>
  <text x="377" y="256" fill="#00d4aa" font-size="11.5" font-weight="bold" letter-spacing="1">FASTAPI</text>

  <rect x="510" y="238" width="152" height="28" rx="2" fill="url(#badgeFrame)" stroke="#2496ed" stroke-width="0.8" stroke-opacity="0.5"/>
  <circle cx="524" cy="252" r="4" fill="#2496ed"/>
  <text x="535" y="256" fill="#2496ed" font-size="11.5" font-weight="bold" letter-spacing="1">DOCKER</text>

  <rect x="668" y="238" width="156" height="28" rx="2" fill="url(#badgeFrame)" stroke="#326ce5" stroke-width="0.8" stroke-opacity="0.5"/>
  <circle cx="682" cy="252" r="4" fill="#326ce5"/>
  <text x="693" y="256" fill="#326ce5" font-size="11.5" font-weight="bold" letter-spacing="1">KUBERNETES</text>

  <!-- ══════════════════════════════════════════════════════════════════
       SECTION 3 — CONSTELLATIONS — CLOUD
       Grid: 5 per row · badge w=152 · gap=6 · x = 36, 194, 352, 510, 668
       Row 1 y=306 | Row 2 y=340
       ══════════════════════════════════════════════════════════════════ -->

  <rect x="36" y="278" width="788" height="22" rx="1" fill="#080510" opacity="0.8"/>
  <line x1="36" y1="278" x2="824" y2="278" stroke="#f0c040" stroke-width="1" opacity="0.6"/>
  <line x1="36" y1="300" x2="824" y2="300" stroke="#f0c040" stroke-width="1" opacity="0.3"/>
  <text x="430" y="293" fill="#f0c040" font-size="12" font-weight="bold"
        letter-spacing="3" text-anchor="middle" filter="url(#goldGlow)">[ CONSTELLATIONS — CLOUD ]</text>

  <!-- Row 1: Azure | DigitalOcean | Heroku | MongoDB | Vercel -->
  <rect x="36"  y="306" width="152" height="28" rx="2" fill="url(#badgeCloud)" stroke="#f0c040" stroke-width="0.8" stroke-opacity="0.4"/>
  <circle cx="50"  cy="320" r="4" fill="#0089D6"/>
  <text x="61"  y="324" fill="#f0c040" font-size="11.5" font-weight="bold" letter-spacing="1">AZURE</text>

  <rect x="194" y="306" width="152" height="28" rx="2" fill="url(#badgeCloud)" stroke="#f0c040" stroke-width="0.8" stroke-opacity="0.4"/>
  <circle cx="208" cy="320" r="4" fill="#0080FF"/>
  <text x="219" y="324" fill="#f0c040" font-size="11" font-weight="bold" letter-spacing="0.5">DIGITALOCEAN</text>

  <rect x="352" y="306" width="152" height="28" rx="2" fill="url(#badgeCloud)" stroke="#f0c040" stroke-width="0.8" stroke-opacity="0.4"/>
  <circle cx="366" cy="320" r="4" fill="#430098"/>
  <text x="377" y="324" fill="#f0c040" font-size="11.5" font-weight="bold" letter-spacing="1">HEROKU</text>

  <rect x="510" y="306" width="152" height="28" rx="2" fill="url(#badgeCloud)" stroke="#f0c040" stroke-width="0.8" stroke-opacity="0.4"/>
  <circle cx="524" cy="320" r="4" fill="#47A248"/>
  <text x="535" y="324" fill="#f0c040" font-size="11.5" font-weight="bold" letter-spacing="1">MONGODB</text>

  <rect x="668" y="306" width="156" height="28" rx="2" fill="url(#badgeCloud)" stroke="#f0c040" stroke-width="0.8" stroke-opacity="0.4"/>
  <circle cx="682" cy="320" r="4" fill="#ffffff"/>
  <text x="693" y="324" fill="#f0c040" font-size="11.5" font-weight="bold" letter-spacing="1">VERCEL</text>

  <!-- Row 2: Postman | JetBrains | Unity | Arduino | Figma -->
  <rect x="36"  y="340" width="152" height="28" rx="2" fill="url(#badgeCloud)" stroke="#f0c040" stroke-width="0.8" stroke-opacity="0.4"/>
  <circle cx="50"  cy="354" r="4" fill="#FF6C37"/>
  <text x="61"  y="358" fill="#f0c040" font-size="11.5" font-weight="bold" letter-spacing="1">POSTMAN</text>

  <rect x="194" y="340" width="152" height="28" rx="2" fill="url(#badgeCloud)" stroke="#f0c040" stroke-width="0.8" stroke-opacity="0.4"/>
  <circle cx="208" cy="354" r="4" fill="#000000" stroke="#f0c040" stroke-width="0.8"/>
  <text x="219" y="358" fill="#f0c040" font-size="11.5" font-weight="bold" letter-spacing="1">JETBRAINS</text>

  <rect x="352" y="340" width="152" height="28" rx="2" fill="url(#badgeCloud)" stroke="#f0c040" stroke-width="0.8" stroke-opacity="0.4"/>
  <circle cx="366" cy="354" r="4" fill="#cccccc"/>
  <text x="377" y="358" fill="#f0c040" font-size="11.5" font-weight="bold" letter-spacing="1">UNITY</text>

  <rect x="510" y="340" width="152" height="28" rx="2" fill="url(#badgeCloud)" stroke="#f0c040" stroke-width="0.8" stroke-opacity="0.4"/>
  <circle cx="524" cy="354" r="4" fill="#00979D"/>
  <text x="535" y="358" fill="#f0c040" font-size="11.5" font-weight="bold" letter-spacing="1">ARDUINO</text>

  <rect x="668" y="340" width="156" height="28" rx="2" fill="url(#badgeCloud)" stroke="#f0c040" stroke-width="0.8" stroke-opacity="0.4"/>
  <circle cx="682" cy="354" r="4" fill="#F24E1E"/>
  <text x="693" y="358" fill="#f0c040" font-size="11.5" font-weight="bold" letter-spacing="1">FIGMA</text>

  <!-- Bottom divider -->
  <line x1="36" y1="382" x2="824" y2="382" stroke="#0066aa" stroke-width="0.5" opacity="0.6"/>

  <!-- Footer -->
  <text x="430" y="404" fill="#4488aa" font-size="11" font-style="italic"
        text-anchor="middle" letter-spacing="0.5">
    [ TOTAL SKILLS REGISTERED: 27 ]  ·  [ STATUS: ACTIVE ]
  </text>
  <text x="430" y="428" fill="#aaddff" font-size="11"
        text-anchor="middle" letter-spacing="1">
    [LANGUAGES: 10]    [FRAMEWORKS: 5]    [TOOLS &amp; CLOUD: 10]
  </text>

  <!-- Blinking cursor -->
  <text x="810" y="460" fill="#00ccff" font-size="13" opacity="0.5">█
    <animate attributeName="opacity" values="0.5;0;0.5" dur="1.2s" repeatCount="indefinite"/>
  </text>

  <!-- Animated scan line sweep -->
  <rect x="10" y="48" width="840" height="3" fill="#00ddff" opacity="0.06">
    <animateTransform attributeName="transform" type="translate"
                      values="0,0;0,430;0,0" dur="5s" repeatCount="indefinite"/>
  </rect>
</svg>
